<svg xmlns="http://www.w3.org/2000/svg" version="1.1" xmlns:xlink="http://www.w3.org/1999/xlink" xmlns:svgjs="http://svgjs.dev/svgjs" viewBox="0 0 1920 1080"><rect width="1920" height="1080" fill="#99bfaa"></rect><g transform="matrix(7.04171909509728e-17,1.15,-1.15,7.04171909509728e-17,1551.6940383911133,-530.2981441497802)"><path d="M0,-1080C-1.242166443725176,-966.053299209055,1.2729498838064952,-617.710434965745,-7.452998662351057,-396.31979525432996C-16.17894720850861,-174.9291555429149,-44.98509935356623,37.09585294368219,-52.35569127694531,248.34383826849023C-59.72628320032439,459.5918235932983,-61.86463870765909,657.7082088373213,-51.67655020262555,871.1681166945184C-41.48846169759201,1084.6280245517155,0.16008138615167944,1314.297971527426,8.772839753255937,1529.103285411673C17.385598120360193,1743.9085992959199,1.4621399588759896,2054.850547568612,0,2160L 1920 2160 L 1920 -1080 Z" fill="url(&quot;#SvgjsLinearGradient1269&quot;)"></path><path d="M160,-1080C155.3575107044314,-1002.023770196187,136.78542261759628,-754.7704755503722,132.14506422658846,-612.142621177122C127.50470583558062,-469.5147668038718,128.38517814841296,-337.66840966110874,132.157849653953,-224.23287376049865C135.93052115949305,-110.79733785988856,149.49611124244024,-67.79133247807717,154.7810932598287,68.47059422653852C160.06607527721718,204.73252093115423,156.62278435603648,443.72432367646957,163.8677417582839,593.3386864671955C171.11269916053132,742.9530492579215,207.57764765222356,840.6764474286525,198.25083767331324,966.1567709708944C188.92402769440292,1091.6370945131364,107.96602774676539,1204.537988783883,107.90688188482201,1346.220627720647C107.84773602287864,1487.9032666574108,189.21377614912333,1680.622709211586,197.895962501653,1816.252604591478C206.57814885418267,1951.8824999713702,166.3159937502755,2102.708767431913,160,2160L 1920 2160 L 1920 -1080 Z" fill="url(&quot;#SvgjsLinearGradient1270&quot;)"></path><path d="M320,-1080C316.66151214733054,-1016.8779974012455,307.34575933842905,-839.1963410489009,299.9690728839833,-701.267984407473C292.59238642953756,-563.3396277660452,275.538320329214,-400.8360090521512,275.73988127332564,-252.42986015143265C275.94144221743727,-104.02371125071411,286.61046426982233,56.546188608684076,301.17843854865293,189.16890899683813C315.74641282748354,321.7916293849922,363.2824831266193,427.9746889576094,363.14772694630926,543.3064621774917C363.0129707659992,658.6382353973739,317.8331727896243,747.4260773462167,300.36990146679284,881.1595483161319C282.90663014396137,1014.8930192860471,260.06084720905596,1208.867926420243,258.3680990093203,1345.7072879969824C256.67535080958464,1482.5466495737217,279.94142876993226,1566.480265776065,290.2134122683789,1702.1957177765678C300.4853957668255,1837.9111697770707,315.0355687113965,2083.6992862960947,320,2160L 1920 2160 L 1920 -1080 Z" fill="url(&quot;#SvgjsLinearGradient1271&quot;)"></path><path d="M480,-1080C477.62780671875436,-1001.2578020331921,456.7436438533932,-790.9039979294654,465.76684031252626,-607.5468121991527C474.7900367716593,-424.18962646883995,534.653965516758,-180.84422761084295,534.1391787547983,20.143114381876146C533.6243919928386,221.1304563745952,476.808950226323,415.92904116175237,462.67811974076767,598.377239757162C448.5472892552123,780.8254383525716,450.6482565177698,955.0497436039353,449.3541958414662,1114.8323059543336C448.0601351651626,1274.6148683047318,449.8061216565236,1382.877998185274,454.9137556829459,1557.0726138595517C460.02138970936824,1731.2672295338293,475.81895928049096,2059.5121023099255,480,2160L 1920 2160 L 1920 -1080 Z" fill="url(&quot;#SvgjsLinearGradient1272&quot;)"></path><path d="M640,-1080C634.8974357355673,-994.1277052626968,608.9427772914291,-742.011184740034,609.3846144134038,-564.766231576181C609.8264515353785,-387.521278412328,644.0953407869367,-200.89696023138063,642.6510227318481,-16.530281016881865C641.2067046767595,167.8363981976169,607.2886123735959,356.2954860328563,600.7187060828725,541.4338437108115C594.148799792149,726.5722013887668,591.3212141678596,916.0887470393334,603.2315849875072,1094.2998650508498C615.1419558071548,1272.5109830623662,666.0528618320093,1433.0838626217185,672.180931000758,1610.7005517799103C678.3090001695068,1788.317240938102,645.3634885001263,2068.4500919633183,640,2160L 1920 2160 L 1920 -1080 Z" fill="url(&quot;#SvgjsLinearGradient1273&quot;)"></path><path d="M800,-1080C798.3312312687253,-934.4713868351754,790.9249086173304,-478.7983976426665,789.9873876123518,-206.82832101105245C789.0498666073731,65.14175562056161,789.0957212446529,292.7994598689958,794.374873970128,551.8204597896845C799.6540266956031,810.8414597103731,820.7247829602237,1079.2677551446939,821.6623039652023,1347.2976785130797C822.599824970181,1615.3276018814656,803.6103839942004,2024.5496130855133,800,2160L 1920 2160 L 1920 -1080 Z" fill="url(&quot;#SvgjsLinearGradient1274&quot;)"></path><path d="M960,-1080C970.2032981125617,-982.7780734150208,1019.7939744071087,-720.8722665962995,1021.2197886753701,-496.66844049012457C1022.6456029436314,-272.46461438394965,967.7530320129649,27.778398646111015,968.5548856095677,265.2229566370497C969.3567392061705,502.66751462798845,1019.0252414858836,710.5852333304666,1026.0309102549863,927.9989074555076C1033.036579024089,1145.4125815805487,1021.5940499333482,1364.3714859632137,1010.5888982241838,1569.7050013872959C999.5837465150195,1775.038516811378,968.4314830373639,2061.617500231216,960,2160L 1920 2160 L 1920 -1080 Z" fill="url(&quot;#SvgjsLinearGradient1275&quot;)"></path><path d="M1120,-1080C1129.343150496978,-949.1187096984196,1174.0239194969379,-574.9376701649048,1176.0589029818682,-294.71225819051745C1178.0938864667985,-14.486846216130061,1140.848050046421,322.58138029059955,1132.2099009095816,601.3524718463243C1123.5717517727423,880.1235634020491,1126.264991645763,1118.1397031182187,1124.2300081608328,1377.9142911438312C1122.1950246759025,1637.6888791694437,1120.7050013601388,2029.6523818573053,1120,2160L 1920 2160 L 1920 -1080 Z" fill="url(&quot;#SvgjsLinearGradient1276&quot;)"></path><path d="M1280,-1080C1275.4165202363363,-969.1129449281676,1243.940941011578,-627.418413932246,1252.4991214180172,-414.67766956900573C1261.0573018244565,-201.9369252057654,1325.6779997883878,-23.499527515684804,1331.3490824386358,196.4444661794421C1337.020165088884,416.388459874569,1297.3573250929664,685.5406580486725,1286.5256173195064,904.9862926017555C1275.6939095460464,1124.4319271548386,1267.4464386844595,1303.9493222648994,1266.3588357978751,1513.1182734979402C1265.2712329112908,1722.287224730981,1277.7264726329793,2052.1863789163235,1280,2160L 1920 2160 L 1920 -1080 Z" fill="url(&quot;#SvgjsLinearGradient1277&quot;)"></path><path d="M1440,-1080C1434.411566818335,-982.4354020653262,1416.4331181118532,-712.0137300197587,1406.4694009100092,-494.6124123919573C1396.5056837081652,-277.21109476415603,1384.721917760298,-6.054043089235876,1380.2176967889357,224.40790576680786C1375.7134758175732,454.86985462285156,1374.1750470733873,675.3418764542678,1379.4440750818349,888.1592807443052C1384.7131030902824,1100.9766850343426,1401.739210686594,1289.3388782977495,1411.8318648396216,1501.312331507032C1421.9245189926492,1713.2857847163145,1435.3053108066035,2050.2187219178386,1440,2160L 1920 2160 L 1920 -1080 Z" fill="url(&quot;#SvgjsLinearGradient1278&quot;)"></path><path d="M1600,-1080C1597.7292841872006,-1010.473861147871,1575.14593783484,-813.4164770144848,1586.3757051232037,-662.8431668872261C1597.6054724115675,-512.2698567599673,1655.6907697775466,-340.52253867241376,1667.3786037301822,-176.5601392364476C1679.0664376828179,-12.597739800481463,1674.6368419445073,155.60260687671135,1656.5027088390173,320.9312297285709C1638.3685757335272,486.25985258043045,1562.2009198998817,673.8571233012387,1558.573805097242,815.4115978747095C1554.9466902946024,956.9660724481803,1636.3716489828214,1020.9594705207464,1634.7400200231789,1170.2580771693956C1633.1083910635364,1319.5566838180448,1554.5740346765838,1546.2462506281709,1548.7840313393872,1711.2032377666048C1542.9940280021906,1876.1602249050388,1591.4640052232312,2085.2005396277673,1600,2160L 1920 2160 L 1920 -1080 Z" fill="url(&quot;#SvgjsLinearGradient1279&quot;)"></path><path d="M1760,-1080C1757.6745740734668,-1005.8343080987273,1755.2043892969784,-792.9283938328196,1746.0474444408014,-635.0058485923637C1736.8904995846244,-477.08330335190783,1694.8462861720045,-282.4800245763379,1705.058330862938,-132.464728557265C1715.2703755538714,17.550567461807844,1807.7905123777448,107.06448880589082,1807.3197125864024,265.08592752207335C1806.84891279506,423.10736623825585,1718.0013619473868,656.2646995929854,1702.2335321148832,815.6639037398302C1686.4657022823797,975.063107886675,1698.4405911609363,1084.0843210077053,1712.7127335913808,1221.4811524031422C1726.9848760218254,1358.8779837985792,1779.9851756294474,1483.6250841796418,1787.8663866975508,1640.0448921124514C1795.747597765654,1796.464700045261,1764.6443977829251,2073.3408153520754,1760,2160L 1920 2160 L 1920 -1080 Z" fill="url(&quot;#SvgjsLinearGradient1280&quot;)"></path></g><defs><linearGradient x1="0.1" y1="0" x2="0" y2="1" id="SvgjsLinearGradient1269"><stop stop-color="#99bfaa" offset="0"></stop><stop stop-color="#99bfa4" offset="0"></stop></linearGradient><linearGradient x1="0.1" y1="0" x2="0" y2="1" id="SvgjsLinearGradient1270"><stop stop-color="#87b49b" offset="0"></stop><stop stop-color="#87b493" offset="0.08333333333333333"></stop></linearGradient><linearGradient x1="0.1" y1="0" x2="0" y2="1" id="SvgjsLinearGradient1271"><stop stop-color="#75a88c" offset="0"></stop><stop stop-color="#75a883" offset="0.16666666666666666"></stop></linearGradient><linearGradient x1="0.1" y1="0" x2="0" y2="1" id="SvgjsLinearGradient1272"><stop stop-color="#639d7d" offset="0"></stop><stop stop-color="#639d73" offset="0.25"></stop></linearGradient><linearGradient x1="0.1" y1="0" x2="0" y2="1" id="SvgjsLinearGradient1273"><stop stop-color="#578b6e" offset="0"></stop><stop stop-color="#578b65" offset="0.3333333333333333"></stop></linearGradient><linearGradient x1="0.1" y1="0" x2="0" y2="1" id="SvgjsLinearGradient1274"><stop stop-color="#4c7960" offset="0"></stop><stop stop-color="#4c7958" offset="0.4166666666666667"></stop></linearGradient><linearGradient x1="0.1" y1="0" x2="0" y2="1" id="SvgjsLinearGradient1275"><stop stop-color="#406651" offset="0"></stop><stop stop-color="#40664b" offset="0.5"></stop></linearGradient><linearGradient x1="0.1" y1="0" x2="0" y2="1" id="SvgjsLinearGradient1276"><stop stop-color="#355443" offset="0"></stop><stop stop-color="#35543e" offset="0.5833333333333334"></stop></linearGradient><linearGradient x1="0.1" y1="0" x2="0" y2="1" id="SvgjsLinearGradient1277"><stop stop-color="#2a4235" offset="0"></stop><stop stop-color="#2a4231" offset="0.6666666666666666"></stop></linearGradient><linearGradient x1="0.1" y1="0" x2="0" y2="1" id="SvgjsLinearGradient1278"><stop stop-color="#1e3026" offset="0"></stop><stop stop-color="#1e3023" offset="0.75"></stop></linearGradient><linearGradient x1="0.1" y1="0" x2="0" y2="1" id="SvgjsLinearGradient1279"><stop stop-color="#131e18" offset="0"></stop><stop stop-color="#131e16" offset="0.8333333333333334"></stop></linearGradient><linearGradient x1="0.1" y1="0" x2="0" y2="1" id="SvgjsLinearGradient1280"><stop stop-color="#070c09" offset="0"></stop><stop stop-color="#070c08" offset="0.9166666666666666"></stop></linearGradient></defs></svg>