<svg xmlns="http://www.w3.org/2000/svg" version="1.1" xmlns:xlink="http://www.w3.org/1999/xlink" xmlns:svgjs="http://svgjs.dev/svgjs" viewBox="0 0 1920 1080"><rect width="1920" height="1080" fill="#99bfaa"></rect><g transform="matrix(7.04171909509728e-17,1.15,-1.15,7.04171909509728e-17,1581,-564)"><path d="M0,-1080C4.649835570470631,-950.9270509742239,24.181551970988725,-567.2300446049735,27.899013422823785,-305.5623058453432C31.616474874658845,-43.89456708571288,17.112446305266236,216.63529621603067,22.304768711010368,490.00643255778186C27.4970911167545,763.3775688995331,62.77040930912365,1056.3322509647944,59.052947857288586,1334.664512205164C55.33548640545352,1612.9967734455338,9.842157976214764,2022.4440853675274,0,2160L 1920 2160 L 1920 -1080 Z" fill="url(&quot;#SvgjsLinearGradient1185&quot;)"></path><path d="M160,-1080C160.13887983032515,-940.3594494786867,169.28778658297682,-502.9189825364142,160.83327898195097,-242.1566968721202C152.37877138092512,18.60558879217379,104.4175212204948,216.51597506463844,109.27295439384494,484.57371398576373C114.12838756719508,752.6314529068891,181.51137042102593,1086.9520223189256,189.96587802205178,1366.1897366546316C198.42038562307764,1645.4274509903375,164.9943130036753,2027.6982894424386,160,2160L 1920 2160 L 1920 -1080 Z" fill="url(&quot;#SvgjsLinearGradient1186&quot;)"></path><path d="M320,-1080C316.6713256480473,-1006.2572594141966,292.91731112809,-786.1138686650398,300.02795388828355,-637.5435564851797C307.1385966484771,-488.97324430531955,368.5136387651556,-350.21062945265555,362.66385656116125,-188.57812692083922C356.81407435716693,-26.945624389022925,272.66346503571657,164.62036522263384,264.92926066431755,332.25145870571816C257.19505629291854,499.8825521888025,304.9335592815364,660.1733480679056,316.2586303327672,817.2084339776667C327.583701383998,974.2435198874277,327.7812696281019,1135.328446224369,332.87968697170237,1274.4619741642844C337.97810431530286,1413.5955021041998,348.9957488896539,1504.4199306445394,346.8491343943702,1652.0096016171588C344.7025198990865,1799.5992725897781,324.47485573239504,2075.3349336028596,320,2160L 1920 2160 L 1920 -1080 Z" fill="url(&quot;#SvgjsLinearGradient1187&quot;)"></path><path d="M480,-1080C481.7802175582933,-971.3113858979433,499.45601457275586,-654.3460019944898,490.6813053497598,-427.8683153876595C481.9065961267637,-201.39062878082913,423.72287014051125,62.52858545464255,427.3517446620234,278.8661196409822C430.98061918353557,495.2036538273219,505.7022957131638,675.1805759337184,512.4545524788326,870.1568897303785C519.2068092445015,1065.1332035270384,473.274377335842,1233.7501507093386,467.8652852560366,1448.7240024209423C462.4561931762312,1663.697854132546,477.97754754267277,2041.4540004034905,480,2160L 1920 2160 L 1920 -1080 Z" fill="url(&quot;#SvgjsLinearGradient1188&quot;)"></path><path d="M640,-1080C650.3580681584745,-1010.7535148360828,710.3004301913189,-829.5887399158432,702.1484089508467,-664.521089016497C693.9963877103745,-499.45343811715065,592.7590455465149,-253.90724031669268,591.0878725571667,-89.59409460392254C589.4166995678186,74.7190511088476,674.3074171418118,182.20345150374357,692.1213710147574,321.3577852601239C709.935324887703,460.5121190165042,713.8612897459077,590.2951857656918,697.9715957948404,745.3319079343593C682.081901843773,900.3686301030267,610.3914781661267,1103.7638553695795,596.7832073083534,1251.5781182721284C583.1749364505802,1399.3923811746774,609.1191718662594,1480.8138383950075,616.3219706482005,1632.2174853496526C623.5247694301415,1783.6211323042978,636.0536617747001,2072.0362475582756,640,2160L 1920 2160 L 1920 -1080 Z" fill="url(&quot;#SvgjsLinearGradient1189&quot;)"></path><path d="M800,-1080C800.9723722751393,-979.2567637150241,801.5148251795792,-696.0707503543513,805.8342336508356,-475.54058229014447C810.1536421220919,-255.0104142259377,829.5908317398645,27.126218140425664,825.9164508275383,243.18100838524072C822.242069915212,459.2357986300558,777.222012297188,599.3690974633599,783.7879481768782,820.7881591787457C790.3538840565684,1042.2072208941315,862.6100574684923,1348.4934052073463,865.3120661056793,1571.6953786775555C868.0140747428662,1794.8973521477646,810.8853443509465,2061.9492297795928,800,2160L 1920 2160 L 1920 -1080 Z" fill="url(&quot;#SvgjsLinearGradient1190&quot;)"></path><path d="M960,-1080C970.6887919318106,-985.8034142079224,1027.4284615393613,-704.8629660846849,1024.1327515908633,-514.8204852475342C1020.8370416423653,-324.77800441038346,942.7052961101751,-108.4308794946268,940.2257403090118,60.25488502290423C937.7461845078485,228.94064954043526,999.2507565096427,317.4620331806159,1009.2554167838837,497.294101857652C1019.2600770581247,677.1261705346881,1007.2438941535042,942.5169521005706,1000.2537019544577,1139.2472970851206C993.2635097554112,1335.9776420696708,974.0232139153475,1507.550721279139,967.3142635896045,1677.6761717649522C960.6053132638615,1847.8016222507654,961.2190439316007,2079.6126952941586,960,2160L 1920 2160 L 1920 -1080 Z" fill="url(&quot;#SvgjsLinearGradient1191&quot;)"></path><path d="M1120,-1080C1129.3626481356655,-987.1905776616924,1185.0625116749698,-692.211968004932,1176.1758888139934,-523.1434659701544C1167.289265953017,-354.0749639353767,1076.7499083881705,-248.21204242983018,1066.6802628341427,-65.58898779133398C1056.6106172801149,117.03406684716222,1105.386665137248,380.85530866323097,1115.758015489827,572.5948618608229C1126.1293658424058,764.3344150584148,1138.548407350495,918.2582843083285,1128.9083649496158,1084.8483313942174C1119.2683225487367,1251.4383784801064,1059.4024885761544,1392.9431996085264,1057.9177610845518,1572.1351443761569C1056.4330335929492,1751.3270891437874,1109.6529601807586,2062.022524062693,1120,2160L 1920 2160 L 1920 -1080 Z" fill="url(&quot;#SvgjsLinearGradient1192&quot;)"></path><path d="M1280,-1080C1290.0858003597973,-977.9915303322632,1329.2758896704484,-676.9706675090669,1340.5148021587838,-467.9491819935791C1351.7537146471193,-258.9276964780913,1360.2908372858074,-45.277897169508634,1347.4334749300126,174.12891309292658C1334.5761125742179,393.5357233553618,1279.1544633035994,626.6530543059713,1263.370628024015,848.4916795810321C1247.5867927444308,1070.3303048560929,1249.9589012565098,1286.5759446734635,1252.7304632525072,1505.1606647432914C1255.5020252485047,1723.7453848131192,1275.4550772087512,2050.860110790549,1280,2160L 1920 2160 L 1920 -1080 Z" fill="url(&quot;#SvgjsLinearGradient1193&quot;)"></path><path d="M1440,-1080C1450.3295932531248,-1005.3306614387278,1503.190816820144,-785.0380744732568,1501.9775595187493,-631.9839686323671C1500.7643022173547,-478.92986279147743,1452.8924142170338,-320.6468775577754,1432.720456191633,-161.67536495466186C1412.5484981662323,-2.7038523515483632,1378.205450535062,159.28921954235685,1380.9458113663454,321.8451069863138C1383.6861721976288,484.40099443027077,1431.9890033022943,662.6766230148542,1449.1626211793339,813.6599597090799C1466.3362390563734,964.6432964033056,1493.6798469202133,1081.050052048397,1483.9875186285824,1227.7451271516682C1474.2951903369515,1374.4402022549393,1398.3399045343117,1538.4545981873189,1391.0086514295479,1693.8304103287076C1383.677398324784,1849.2062224700962,1431.8347752382579,2082.305068388118,1440,2160L 1920 2160 L 1920 -1080 Z" fill="url(&quot;#SvgjsLinearGradient1194&quot;)"></path><path d="M1600,-1080C1606.0147233653713,-992.4399788728444,1639.472951339414,-729.2577933815935,1636.0883401922276,-554.6398732370669C1632.7037290450412,-380.02195309254034,1594.8917817382755,-208.6239378800185,1579.6923331168816,-32.292479132840846C1564.4928844954877,144.03897961433682,1532.5605439821659,320.195911177157,1544.891648463864,503.3488792459992C1557.222752945562,686.5018473148415,1648.2935476184148,889.292339471991,1653.6789600070701,1066.6253292802128C1659.0643723957255,1243.9583190884346,1586.150616130308,1385.1177063086989,1577.2041227957964,1567.34681809533C1568.2576294612848,1749.5759298819612,1596.2006871326328,2061.224469682555,1600,2160L 1920 2160 L 1920 -1080 Z" fill="url(&quot;#SvgjsLinearGradient1195&quot;)"></path><path d="M1760,-1080C1756.519708818461,-961.1555834215765,1748.6631175941168,-585.9074199718132,1739.1182529107648,-366.9335005294587C1729.5733882274128,-147.95958108710423,1710.3701042923253,25.7349410832245,1702.730811899888,233.84351665412657C1695.0915195074508,441.95209222502865,1690.1732723237594,666.4419848685388,1693.2824985561413,881.7179528959537C1696.391724788523,1096.9939209233685,1710.2665857202032,1312.452316967941,1721.3861692941796,1525.4993248186154C1732.505752868156,1738.5463326692898,1753.5643615490299,2054.2498874697694,1760,2160L 1920 2160 L 1920 -1080 Z" fill="url(&quot;#SvgjsLinearGradient1196&quot;)"></path></g><defs><linearGradient x1="0.1" y1="0" x2="0" y2="1" id="SvgjsLinearGradient1185"><stop stop-color="#99bfaa" offset="0"></stop><stop stop-color="#99bfa4" offset="0"></stop></linearGradient><linearGradient x1="0.1" y1="0" x2="0" y2="1" id="SvgjsLinearGradient1186"><stop stop-color="#a1c4b1" offset="0"></stop><stop stop-color="#a1c4ab" offset="0.08333333333333333"></stop></linearGradient><linearGradient x1="0.1" y1="0" x2="0" y2="1" id="SvgjsLinearGradient1187"><stop stop-color="#a9c9b7" offset="0"></stop><stop stop-color="#a9c9b2" offset="0.16666666666666666"></stop></linearGradient><linearGradient x1="0.1" y1="0" x2="0" y2="1" id="SvgjsLinearGradient1188"><stop stop-color="#b1cebe" offset="0"></stop><stop stop-color="#b1ceb9" offset="0.25"></stop></linearGradient><linearGradient x1="0.1" y1="0" x2="0" y2="1" id="SvgjsLinearGradient1189"><stop stop-color="#b9d3c5" offset="0"></stop><stop stop-color="#b9d3c1" offset="0.3333333333333333"></stop></linearGradient><linearGradient x1="0.1" y1="0" x2="0" y2="1" id="SvgjsLinearGradient1190"><stop stop-color="#c1d8cb" offset="0"></stop><stop stop-color="#c1d8c7" offset="0.4166666666666667"></stop></linearGradient><linearGradient x1="0.1" y1="0" x2="0" y2="1" id="SvgjsLinearGradient1191"><stop stop-color="#c9ddd2" offset="0"></stop><stop stop-color="#c9ddcf" offset="0.5"></stop></linearGradient><linearGradient x1="0.1" y1="0" x2="0" y2="1" id="SvgjsLinearGradient1192"><stop stop-color="#d1e2d8" offset="0"></stop><stop stop-color="#d1e2d5" offset="0.5833333333333334"></stop></linearGradient><linearGradient x1="0.1" y1="0" x2="0" y2="1" id="SvgjsLinearGradient1193"><stop stop-color="#d9e7df" offset="0"></stop><stop stop-color="#d9e7dd" offset="0.6666666666666666"></stop></linearGradient><linearGradient x1="0.1" y1="0" x2="0" y2="1" id="SvgjsLinearGradient1194"><stop stop-color="#e1ece6" offset="0"></stop><stop stop-color="#e1ece4" offset="0.75"></stop></linearGradient><linearGradient x1="0.1" y1="0" x2="0" y2="1" id="SvgjsLinearGradient1195"><stop stop-color="#e9f1ec" offset="0"></stop><stop stop-color="#e9f1eb" offset="0.8333333333333334"></stop></linearGradient><linearGradient x1="0.1" y1="0" x2="0" y2="1" id="SvgjsLinearGradient1196"><stop stop-color="#f1f6f3" offset="0"></stop><stop stop-color="#f1f6f2" offset="0.9166666666666666"></stop></linearGradient></defs></svg>